# xmcd
#
# Track frame offsets: 
#        150
#        12017
#        26662
#        46282
#        62835
#        80160
#        95220
#        109137
#        122545
#        143400
#        158815
#
# Disc length: 2271 seconds
#
# Revision: 4
# Processed by: cddbd v1.5.2PL0 Copyright (c) Steve Scherf et al.
# Submitted via: ExactAudioCopyFreeDBPlugin 1.0
#
DISCID=8b08dd0b
DTITLE=Victor Mecyssne - Personal Mercury
DYEAR=1997
DGENRE=Country
TTITLE0=Pilot Light
TTITLE1=Ragtop Automobile
TTITLE2=Tiny Tattoo
TTITLE3=Sleepy Nashville Town
TTITLE4=Lipstick on a Filtertip
TTITLE5=Pear-shaped Woman
TTITLE6=It's Easy
TTITLE7=Call Me Up
TTITLE8=April's Got Me Thinkin' 'bout the Blues
TTITLE9=Summer Way Down South
TTITLE10=Trailer Park Hendrix
EXTD=
EXTT0=
EXTT1=
EXTT2=
EXTT3=
EXTT4=
EXTT5=
EXTT6=
EXTT7=
EXTT8=
EXTT9=
EXTT10=
PLAYORDER=
